<svg width="495" height="209" viewBox="0 0 495 209" xmlns="http://www.w3.org/2000/svg" role="img" aria-label="Most used languages">
  <style>
    .bg { fill: #0D1117; }
    .title { font: 600 18px 'Segoe UI', Ubuntu, Sans-Serif; fill: #00D9FF; }
    .lang { font: 400 13px 'Segoe UI', Ubuntu, Sans-Serif; fill: #FFFFFF; }
  </style>
  <rect x="0.5" y="0.5" width="494" height="208" rx="10" class="bg" />
  <text x="25" y="40" class="title">Most Used Languages</text>
  <clipPath id="barclip"><rect x="25" y="62" width="445" height="10" rx="5" /></clipPath>
  <g clip-path="url(#barclip)">
    <rect x="25" y="62" width="445" height="10" fill="#21262D" />
    <rect x="25.00" y="62" width="272.49" height="10" fill="#3572A5" /><rect x="297.49" y="62" width="56.08" height="10" fill="#3178c6" /><rect x="353.57" y="62" width="49.84" height="10" fill="#e34c26" /><rect x="403.42" y="62" width="41.35" height="10" fill="#fcb32c" /><rect x="444.76" y="62" width="13.34" height="10" fill="#f1e05a" /><rect x="458.10" y="62" width="6.57" height="10" fill="#663399" /><rect x="464.67" y="62" width="2.75" height="10" fill="#ff5a03" /><rect x="467.42" y="62" width="2.58" height="10" fill="#f34b7d" />
  </g>
  <g transform="translate(25, 96)">
    <circle cx="6" cy="-4" r="5" fill="#3572A5" />
    <text x="18" y="0" class="lang">Python 61.23%</text>
  </g>
  <g transform="translate(247.5, 96)">
    <circle cx="6" cy="-4" r="5" fill="#3178c6" />
    <text x="18" y="0" class="lang">TypeScript 12.60%</text>
  </g>
  <g transform="translate(25, 122)">
    <circle cx="6" cy="-4" r="5" fill="#e34c26" />
    <text x="18" y="0" class="lang">HTML 11.20%</text>
  </g>
  <g transform="translate(247.5, 122)">
    <circle cx="6" cy="-4" r="5" fill="#fcb32c" />
    <text x="18" y="0" class="lang">MDX 9.29%</text>
  </g>
  <g transform="translate(25, 148)">
    <circle cx="6" cy="-4" r="5" fill="#f1e05a" />
    <text x="18" y="0" class="lang">JavaScript 3.00%</text>
  </g>
  <g transform="translate(247.5, 148)">
    <circle cx="6" cy="-4" r="5" fill="#663399" />
    <text x="18" y="0" class="lang">CSS 1.48%</text>
  </g>
  <g transform="translate(25, 174)">
    <circle cx="6" cy="-4" r="5" fill="#ff5a03" />
    <text x="18" y="0" class="lang">Astro 0.62%</text>
  </g>
  <g transform="translate(247.5, 174)">
    <circle cx="6" cy="-4" r="5" fill="#f34b7d" />
    <text x="18" y="0" class="lang">C++ 0.58%</text>
  </g>
</svg>