<svg width="495" height="209" viewBox="0 0 495 209" xmlns="http://www.w3.org/2000/svg" role="img" aria-label="Most used languages">
  <style>
    .bg { fill: #0D1117; }
    .title { font: 600 18px 'Segoe UI', Ubuntu, Sans-Serif; fill: #00D9FF; }
    .lang { font: 400 13px 'Segoe UI', Ubuntu, Sans-Serif; fill: #FFFFFF; }
  </style>
  <rect x="0.5" y="0.5" width="494" height="208" rx="10" class="bg" />
  <text x="25" y="40" class="title">Most Used Languages</text>
  <clipPath id="barclip"><rect x="25" y="62" width="445" height="10" rx="5" /></clipPath>
  <g clip-path="url(#barclip)">
    <rect x="25" y="62" width="445" height="10" fill="#21262D" />
    <rect x="25.00" y="62" width="257.85" height="10" fill="#3572A5" /><rect x="282.85" y="62" width="57.72" height="10" fill="#fcb32c" /><rect x="340.57" y="62" width="56.20" height="10" fill="#3178c6" /><rect x="396.78" y="62" width="47.16" height="10" fill="#e34c26" /><rect x="443.94" y="62" width="14.68" height="10" fill="#f1e05a" /><rect x="458.62" y="62" width="6.26" height="10" fill="#663399" /><rect x="464.88" y="62" width="2.60" height="10" fill="#ff5a03" /><rect x="467.48" y="62" width="2.52" height="10" fill="#012456" />
  </g>
  <g transform="translate(25, 96)">
    <circle cx="6" cy="-4" r="5" fill="#3572A5" />
    <text x="18" y="0" class="lang">Python 57.94%</text>
  </g>
  <g transform="translate(247.5, 96)">
    <circle cx="6" cy="-4" r="5" fill="#fcb32c" />
    <text x="18" y="0" class="lang">MDX 12.97%</text>
  </g>
  <g transform="translate(25, 122)">
    <circle cx="6" cy="-4" r="5" fill="#3178c6" />
    <text x="18" y="0" class="lang">TypeScript 12.63%</text>
  </g>
  <g transform="translate(247.5, 122)">
    <circle cx="6" cy="-4" r="5" fill="#e34c26" />
    <text x="18" y="0" class="lang">HTML 10.60%</text>
  </g>
  <g transform="translate(25, 148)">
    <circle cx="6" cy="-4" r="5" fill="#f1e05a" />
    <text x="18" y="0" class="lang">JavaScript 3.30%</text>
  </g>
  <g transform="translate(247.5, 148)">
    <circle cx="6" cy="-4" r="5" fill="#663399" />
    <text x="18" y="0" class="lang">CSS 1.41%</text>
  </g>
  <g transform="translate(25, 174)">
    <circle cx="6" cy="-4" r="5" fill="#ff5a03" />
    <text x="18" y="0" class="lang">Astro 0.58%</text>
  </g>
  <g transform="translate(247.5, 174)">
    <circle cx="6" cy="-4" r="5" fill="#012456" />
    <text x="18" y="0" class="lang">PowerShell 0.57%</text>
  </g>
</svg>