<svg width="495" height="209" viewBox="0 0 495 209" xmlns="http://www.w3.org/2000/svg" role="img" aria-label="Most used languages">
  <style>
    .bg { fill: #0D1117; }
    .title { font: 600 18px 'Segoe UI', Ubuntu, Sans-Serif; fill: #00D9FF; }
    .lang { font: 400 13px 'Segoe UI', Ubuntu, Sans-Serif; fill: #FFFFFF; }
  </style>
  <rect x="0.5" y="0.5" width="494" height="208" rx="10" class="bg" />
  <text x="25" y="40" class="title">Most Used Languages</text>
  <clipPath id="barclip"><rect x="25" y="62" width="445" height="10" rx="5" /></clipPath>
  <g clip-path="url(#barclip)">
    <rect x="25" y="62" width="445" height="10" fill="#21262D" />
    <rect x="25.00" y="62" width="254.87" height="10" fill="#3572A5" /><rect x="279.87" y="62" width="58.97" height="10" fill="#fcb32c" /><rect x="338.84" y="62" width="58.61" height="10" fill="#3178c6" /><rect x="397.44" y="62" width="46.21" height="10" fill="#e34c26" /><rect x="443.65" y="62" width="14.59" height="10" fill="#f1e05a" /><rect x="458.25" y="62" width="6.74" height="10" fill="#663399" /><rect x="464.99" y="62" width="2.53" height="10" fill="#ff5a03" /><rect x="467.52" y="62" width="2.48" height="10" fill="#012456" />
  </g>
  <g transform="translate(25, 96)">
    <circle cx="6" cy="-4" r="5" fill="#3572A5" />
    <text x="18" y="0" class="lang">Python 57.27%</text>
  </g>
  <g transform="translate(247.5, 96)">
    <circle cx="6" cy="-4" r="5" fill="#fcb32c" />
    <text x="18" y="0" class="lang">MDX 13.25%</text>
  </g>
  <g transform="translate(25, 122)">
    <circle cx="6" cy="-4" r="5" fill="#3178c6" />
    <text x="18" y="0" class="lang">TypeScript 13.17%</text>
  </g>
  <g transform="translate(247.5, 122)">
    <circle cx="6" cy="-4" r="5" fill="#e34c26" />
    <text x="18" y="0" class="lang">HTML 10.38%</text>
  </g>
  <g transform="translate(25, 148)">
    <circle cx="6" cy="-4" r="5" fill="#f1e05a" />
    <text x="18" y="0" class="lang">JavaScript 3.28%</text>
  </g>
  <g transform="translate(247.5, 148)">
    <circle cx="6" cy="-4" r="5" fill="#663399" />
    <text x="18" y="0" class="lang">CSS 1.51%</text>
  </g>
  <g transform="translate(25, 174)">
    <circle cx="6" cy="-4" r="5" fill="#ff5a03" />
    <text x="18" y="0" class="lang">Astro 0.57%</text>
  </g>
  <g transform="translate(247.5, 174)">
    <circle cx="6" cy="-4" r="5" fill="#012456" />
    <text x="18" y="0" class="lang">PowerShell 0.56%</text>
  </g>
</svg>