<svg width="495" height="209" viewBox="0 0 495 209" xmlns="http://www.w3.org/2000/svg" role="img" aria-label="Most used languages">
  <style>
    .bg { fill: #0D1117; }
    .title { font: 600 18px 'Segoe UI', Ubuntu, Sans-Serif; fill: #00D9FF; }
    .lang { font: 400 13px 'Segoe UI', Ubuntu, Sans-Serif; fill: #FFFFFF; }
  </style>
  <rect x="0.5" y="0.5" width="494" height="208" rx="10" class="bg" />
  <text x="25" y="40" class="title">Most Used Languages</text>
  <clipPath id="barclip"><rect x="25" y="62" width="445" height="10" rx="5" /></clipPath>
  <g clip-path="url(#barclip)">
    <rect x="25" y="62" width="445" height="10" fill="#21262D" />
    <rect x="25.00" y="62" width="264.50" height="10" fill="#3572A5" /><rect x="289.50" y="62" width="54.72" height="10" fill="#3178c6" /><rect x="344.22" y="62" width="52.72" height="10" fill="#fcb32c" /><rect x="396.95" y="62" width="48.38" height="10" fill="#e34c26" /><rect x="445.33" y="62" width="13.12" height="10" fill="#f1e05a" /><rect x="458.45" y="62" width="6.38" height="10" fill="#663399" /><rect x="464.83" y="62" width="2.67" height="10" fill="#ff5a03" /><rect x="467.49" y="62" width="2.51" height="10" fill="#f34b7d" />
  </g>
  <g transform="translate(25, 96)">
    <circle cx="6" cy="-4" r="5" fill="#3572A5" />
    <text x="18" y="0" class="lang">Python 59.44%</text>
  </g>
  <g transform="translate(247.5, 96)">
    <circle cx="6" cy="-4" r="5" fill="#3178c6" />
    <text x="18" y="0" class="lang">TypeScript 12.30%</text>
  </g>
  <g transform="translate(25, 122)">
    <circle cx="6" cy="-4" r="5" fill="#fcb32c" />
    <text x="18" y="0" class="lang">MDX 11.85%</text>
  </g>
  <g transform="translate(247.5, 122)">
    <circle cx="6" cy="-4" r="5" fill="#e34c26" />
    <text x="18" y="0" class="lang">HTML 10.87%</text>
  </g>
  <g transform="translate(25, 148)">
    <circle cx="6" cy="-4" r="5" fill="#f1e05a" />
    <text x="18" y="0" class="lang">JavaScript 2.95%</text>
  </g>
  <g transform="translate(247.5, 148)">
    <circle cx="6" cy="-4" r="5" fill="#663399" />
    <text x="18" y="0" class="lang">CSS 1.43%</text>
  </g>
  <g transform="translate(25, 174)">
    <circle cx="6" cy="-4" r="5" fill="#ff5a03" />
    <text x="18" y="0" class="lang">Astro 0.60%</text>
  </g>
  <g transform="translate(247.5, 174)">
    <circle cx="6" cy="-4" r="5" fill="#f34b7d" />
    <text x="18" y="0" class="lang">C++ 0.56%</text>
  </g>
</svg>